<svg xmlns="http://www.w3.org/2000/svg"><symbol id="mecha-stilts" viewBox="0 0 256 256"><path d="M69.3 147.8h56.5v23.33H69.3zm60.8 0h9.5v23.33h-9.5zm0-66.9v46.9h58a62.4 62.4 0 0 0-58-46.9zm-6.3.2c-26.9 1.7-49.4 21.2-55.9 46.7h22.5zm2.1 46.7V85.3l-30.3 42.5h30.3z"/><path d="M128 0L17.1 64v128L128 256l110.9-64V64zm90.6 147.8h-27.7v25.4a2 2 0 0 1-2.1 2.1H67.2a2 2 0 0 1-2.1-2.1v-25.4H37.4a2.3 2.3 0 0 1-2.1-2.1 2.2 2.2 0 0 1 2.1-2.1h15.8v-13.7a1.9 1.9 0 0 1 2.1-2.1h8.2a66.6 66.6 0 0 1 64.3-51.1c.2-.2.4-.2.8 0 31.1.2 57 22.1 63.9 51.1h8.2a1.9 1.9 0 0 1 2.1 2.1v13.7h15.8a2.2 2.2 0 0 1 2.1 2.1 2.3 2.3 0 0 1-2.1 2.1z"/><path d="M57.4 132h141.3v11.56H57.4zm86.4 15.8h42.9v23.33h-42.9z"/></symbol><symbol id="space-bubbles" viewBox="0 0 256 256"><path d="M97.3 148.9H83.4l-18.5 21.8 3 4.2 35.5-18.7-6.1-7.3zm74.8-19.4a50.1 50.1 0 0 0 2.6-16 45.5 45.5 0 0 0-45.4-45.4c-25.1 0-45.7 20.4-45.7 45.4 0 5.5.5 11.2 2.6 16zm-100.4 4.2h115v10.93h-115zm31.1 15.2l17.6 21.2h15.2l17.6-21.2h-50.4zm-16.4 21.2H115l-8.7-10.5-19.9 10.5z"/><path d="M128-1L17.1 63v128L128 255l110.9-64V63zm67.3 173l-4.9 6.9a2.1 2.1 0 0 1-2.7.7l-10.1-5.3H78.2l-10.1 5.3a2.2 2.2 0 0 1-2.7-.7l-4.9-6.9a2.2 2.2 0 0 1 .2-2.5l17.5-20.6h-8.6a2 2 0 0 1-2.1-2.1v-15.2a2 2 0 0 1 2.1-2.1h12.1a61.2 61.2 0 0 1-2.3-16 49.9 49.9 0 0 1 49.9-49.6c27.1 0 49.6 22.5 49.6 49.6a53.9 53.9 0 0 1-2.3 16h12.2a2.1 2.1 0 0 1 2.1 2.1v15.2a2.1 2.1 0 0 1-2.1 2.1H178l17.3 20.6a2.3 2.3 0 0 1 0 2.5z"/><path d="M141 170.1h28.6l-19.9-10.5-8.7 10.5zm17.7-21.2l-6.3 7.3 35.7 18.7 3-4-18.5-22h-13.9z"/></symbol><symbol id="super-domes" viewBox="0 0 256 256"><path d="M121.3 157.8h13.5v13.24h-13.5zm-25.3 0h21v13.24H96zm42.9 0h21v13.24h-21zM128 70.2c-24.6 0-45.2 14.9-46.3 42h92.5c-1-27.1-21.6-42-46.2-42zm-49.6 87.6h13.5v13.24H78.4zm-12.6-4.2h124.4v-37.2H65.8zm61.1-14.3h51.3a2.2 2.2 0 0 1 0 4.3h-51.3a2.2 2.2 0 0 1 0-4.3z"/><path d="M128 0L17.1 64v128L128 256l110.9-64V64zm66.4 155.7a1.9 1.9 0 0 1-2.1 2.1h-10.5v13.3h10.5a2.2 2.2 0 0 1 2.1 2.1 2.3 2.3 0 0 1-2.1 2.1H63.7a2.3 2.3 0 0 1-2.1-2.1 2.2 2.2 0 0 1 2.1-2.1h10.5v-13.3H63.7a1.9 1.9 0 0 1-2.1-2.1v-41.4a2 2 0 0 1 2.1-2.1h13.8C78.6 82.4 100.9 66 128 66s49.4 16.4 50.4 46.2h13.9a2 2 0 0 1 2.1 2.1z"/><path d="M164.2 157.8h13.5v13.24h-13.5z"/></symbol></svg>